<svg width="640" height="403" viewBox="0 0 640 403" fill="none" xmlns="http://www.w3.org/2000/svg">
<path d="M31.8529 372.851H635.158C635.158 372.851 635.158 349.791 623.597 325.522C612.035 301.253 610.984 293.129 625.699 264.603C640.414 236.077 637.649 175.369 601.199 143.185C564.738 111.002 505.511 116.331 464.709 106.314C423.907 96.2977 293.219 29.7239 261.866 17.2899C230.513 4.85593 165.873 2.35441 125.008 58.4597C106.919 83.2962 85.3936 124.371 51.2659 143.311C10.9999 165.657 4.52544 207.005 20.2913 251.496C36.0571 295.988 0.321218 323.578 31.8529 372.851Z" fill="#EAEAEA"/>
<path d="M86.7075 301.2C86.7075 301.2 86.4448 285.623 90.2601 270.772C97.2706 243.539 84.3006 211.566 55.3966 228.383C38.4746 238.231 36.8245 262.689 50.32 279.674C62.3231 294.778 86.7075 301.21 86.7075 301.21V301.2Z" fill="#D8D8D8"/>
<path d="M62.323 243.541C62.323 243.541 80.7165 285.573 92.5408 315.791" stroke="#8B8B8B" stroke-width="0.94" stroke-miterlimit="10"/>
<path d="M84.4792 251.15L81.6729 264.814L78.1729 255.88" stroke="#8B8B8B" stroke-width="0.94" stroke-miterlimit="10"/>
<path d="M81.6729 264.812L82.0722 289.922" stroke="#8B8B8B" stroke-width="0.94" stroke-miterlimit="10"/>
<path d="M77.2165 278.31L66.2645 267.263L56.9731 265.34" stroke="#8B8B8B" stroke-width="0.94" stroke-miterlimit="10"/>
<path d="M63.637 261.135L66.2646 267.262" stroke="#8B8B8B" stroke-width="0.94" stroke-miterlimit="10"/>
<path d="M68.9763 234.154L68.5664 257.982" stroke="#8B8B8B" stroke-width="0.94" stroke-miterlimit="10"/>
<path d="M121.476 232.388C121.476 232.388 106.057 225.22 100.277 213.742C94.4958 202.275 95.5468 183.651 108.159 178.9C120.772 174.149 128.392 186.762 128.13 198.681C127.898 209.381 121.476 232.388 121.476 232.388Z" fill="#D8D8D8"/>
<path d="M111.66 190.168C111.66 190.168 119.543 224.811 125.502 249.101" stroke="#8B8B8B" stroke-width="0.94" stroke-miterlimit="10"/>
<path d="M115.517 183.902L113.94 200.131" stroke="#8B8B8B" stroke-width="0.94" stroke-miterlimit="10"/>
<path d="M101.727 202.801L108.16 207.005L118.05 217.82" stroke="#8B8B8B" stroke-width="0.94" stroke-miterlimit="10"/>
<path d="M106.32 197.42L108.16 207.006" stroke="#8B8B8B" stroke-width="0.94" stroke-miterlimit="10"/>
<path d="M121.96 206.354L119.217 222.824" stroke="#8B8B8B" stroke-width="0.94" stroke-miterlimit="10"/>
<path d="M55.2178 312.762C60.5572 306.487 70.0692 307.769 76.817 315.41C83.5753 323.051 85.3831 344.777 85.3831 344.777C85.3831 344.777 67.0001 343.736 57.3514 336.137C47.7028 328.538 51.5181 317.113 55.2178 312.762Z" fill="#D8D8D8"/>
<path d="M93.7917 353.396C93.7917 353.396 69.6279 328.644 61.0093 319.836" stroke="#8B8B8B" stroke-width="0.94" stroke-miterlimit="10"/>
<path d="M68.7556 318.754L73.1595 324.219L77.4058 336.611" stroke="#8B8B8B" stroke-width="0.94" stroke-miterlimit="10"/>
<path d="M73.3171 319.121L73.1594 324.219" stroke="#8B8B8B" stroke-width="0.94" stroke-miterlimit="10"/>
<path d="M68.5454 327.54C68.5454 327.54 64.8036 328.392 57.4673 326.006" stroke="#8B8B8B" stroke-width="0.94" stroke-miterlimit="10"/>
<path opacity="0.3" d="M73.4641 372.336H308.385C308.385 372.336 317 208 297.5 208C280.5 208 271.493 346.795 271.493 346.795C271.493 346.795 253.541 285.992 243.914 287.61C234.276 289.229 231.879 320.14 231.879 320.14C231.879 320.14 218.646 170.617 178.107 170.617C167.523 170.617 145.136 254.039 145.136 254.039C145.136 254.039 142.434 194.045 136.002 194.855C129.569 195.674 123.126 256.972 123.126 256.972C123.126 256.972 114.455 230.874 106.047 230.78C97.6384 230.696 109.2 324.313 109.2 324.313C109.2 324.313 102.894 297.711 95.0107 297.879C87.1278 298.047 91.8576 348.172 91.8576 348.172C91.8576 348.172 73.4641 354.636 73.4641 372.325V372.336Z" fill="#8B8B8B"/>
<path opacity="0.3" d="M310 373H635C635 373 613.825 324.568 595.142 343.066C594.022 307.148 579.115 290.291 563.155 314.772C558.16 271.777 547.732 231.108 494.767 250.626C493.033 217.9 458.861 194.61 429.212 264.487C429.212 264.487 433.142 251.246 426.489 250.626C419.837 250.005 414.447 276.609 414.447 276.609C414.447 276.609 415.874 248.512 399.562 252.797C383.25 257.083 357.037 328.715 357.037 328.715C357.037 328.715 361.911 284.127 349.155 282.152C336.4 280.177 310 372.992 310 372.992V373Z" fill="#8B8B8B"/>
<path d="M342.251 106.799H331.971V372.852H342.251V106.799Z" fill="white"/>
<path d="M409.473 44.8184H264.749C263.644 44.8184 262.749 45.7138 262.749 46.8184V111.253C262.749 112.357 263.644 113.253 264.749 113.253H409.473C410.578 113.253 411.473 112.357 411.473 111.253V46.8184C411.473 45.7138 410.578 44.8184 409.473 44.8184Z" fill="#606060"/>
<path d="M409.161 45H268C266.895 45 266 45.8954 266 47V107.283C266 108.387 266.895 109.283 268 109.283H409.161C410.266 109.283 411.161 108.387 411.161 107.283V47C411.161 45.8954 410.266 45 409.161 45Z" fill="#8B8B8B"/>
<path d="M320.615 91.9338V97.9889H314.026V91.9338H299V86.1202L310.61 56.3105H317.562L306.125 85.7062H314.026V75.1659H320.615V85.7062H323.669V91.9338H320.615Z" fill="white"/>
<path d="M350.149 87.8625C350.149 89.5359 349.856 91.0195 349.286 92.296C348.717 93.5726 347.923 94.6594 346.923 95.5565C345.922 96.4535 344.784 97.1263 343.49 97.5921C342.196 98.0578 340.833 98.2821 339.402 98.2821C337.97 98.2821 336.607 98.0578 335.313 97.5921C334.019 97.1263 332.881 96.4535 331.915 95.5565C330.931 94.6594 330.155 93.5726 329.586 92.296C329.016 91.0195 328.723 89.5359 328.723 87.8625V66.4886C328.723 64.8152 329.016 63.3317 329.586 62.0206C330.155 60.7268 330.949 59.6227 331.949 58.7257C332.95 57.8286 334.071 57.1558 335.348 56.69C336.624 56.2243 337.97 56 339.402 56C340.833 56 342.213 56.2243 343.524 56.69C344.836 57.1558 345.974 57.8286 346.957 58.7257C347.923 59.6227 348.717 60.7268 349.286 62.0206C349.856 63.3144 350.149 64.798 350.149 66.4886V87.8625ZM343.559 66.4886C343.559 65.1775 343.179 64.1425 342.42 63.4007C341.661 62.6589 340.661 62.2966 339.419 62.2966C338.177 62.2966 337.176 62.6589 336.417 63.4007C335.658 64.1425 335.279 65.1603 335.279 66.4886V87.8108C335.279 89.1736 335.658 90.2087 336.417 90.9332C337.176 91.6577 338.177 92.0028 339.419 92.0028C340.661 92.0028 341.661 91.6405 342.42 90.9332C343.179 90.2087 343.559 89.1736 343.559 87.8108V66.4886Z" fill="white"/>
<path d="M376.301 91.9338V97.9889H369.712V91.9338H354.686V86.1202L366.296 56.3105H373.248L361.811 85.7062H369.712V75.1659H376.301V85.7062H379.355V91.9338H376.301Z" fill="white"/>
<path d="M103.157 151.858H11.946C-1.4339 151.858 4.54661 146.161 11.946 144.742C14.3004 144.29 16.5917 143.754 18.6307 143.229C22.5512 142.22 25.904 139.54 27.5647 135.851C28.8155 133.076 31.1593 129.944 35.5737 128.514C40.0302 127.074 43.8981 127.673 46.6414 128.609C48.8486 129.365 51.2029 128.01 51.5813 125.708C52.9162 117.657 56.8786 102.879 67.9357 102.879C78.173 102.879 84.0799 118.813 86.8337 129.197C88.4733 135.378 92.9403 140.402 98.9103 142.703C100.266 143.229 101.696 143.733 103.146 144.164C109.358 146.035 111.775 151.848 103.146 151.848L103.157 151.858Z" fill="#D8D8D8"/>
<path d="M465.455 122.585H538.577C551.495 122.585 546.439 116.72 542.508 115.207C540.322 114.366 535.067 112.842 530.852 111.665C527.488 110.719 524.693 108.354 523.316 105.138C520.888 99.4618 514.844 91.0324 500.56 92.4303C498.038 92.6825 495.568 91.6315 493.876 89.7396C490.386 85.8297 483.596 80.217 475.177 83.1705C465.844 86.4498 463.91 100.923 463.521 107.891C463.406 110.035 462.039 111.896 460.032 112.653C457.604 113.567 454.692 115.207 454.209 117.876C453.368 122.575 459.916 122.575 465.445 122.575L465.455 122.585Z" fill="#D8D8D8"/>
<path d="M367.402 3.8909L372.794 2.83984L369.053 6.19271L367.402 3.8909Z" fill="#8B8B8B"/>
<path d="M357.312 17.3537C358.121 16.3342 358.458 15.0204 358.321 13.7276C357.922 9.80713 357.701 1.7035 362.546 0.221512C368.979 -1.75447 370.167 10.7321 370.692 16.5129C371.218 22.2937 387.11 42.2637 345.467 42.0009C345.467 42.0009 350.89 25.4889 357.312 17.3642V17.3537Z" fill="#282828"/>
<path d="M364.417 5.15187C364.417 5.72995 363.955 6.19242 363.377 6.19242C362.799 6.19242 362.336 5.72995 362.336 5.15187C362.336 4.57379 362.799 4.11133 363.377 4.11133C363.955 4.11133 364.417 4.57379 364.417 5.15187Z" fill="white"/>
<path d="M358.269 15.1875C358.269 15.1875 371.754 35.7146 346.192 39.9083" stroke="#606060" stroke-width="0.75" stroke-linecap="round" stroke-linejoin="round"/>
<path d="M356.986 17.7734C356.986 17.7734 363.314 31.9417 346.791 38.2585" stroke="#606060" stroke-width="0.75" stroke-linecap="round" stroke-linejoin="round"/>
<path d="M359.856 40.4883L359.257 44.8186" stroke="#282828" stroke-width="0.75" stroke-miterlimit="10"/>
<path d="M364.522 39.1953L363.755 44.8185" stroke="#282828" stroke-width="0.75" stroke-miterlimit="10"/>
<path opacity="0.5" d="M346.192 44.8184C346.192 44.8184 370.303 58.9445 376.084 57.1893C381.865 55.434 372.058 44.8184 372.058 44.8184H346.202H346.192Z" fill="url(#paint0_linear_4252_144524)"/>
<path d="M161.577 88.8526L146.8 80.1393C147.882 66.917 139.379 54.42 126.094 50.9305C111.2 47.0206 95.96 55.923 92.0501 70.8165C88.1402 85.7099 97.0426 100.95 111.936 104.86C125.242 108.35 138.822 101.612 144.351 89.5252L161.577 88.8526Z" fill="white"/>
<path d="M114.711 84.9013V83.3562C114.711 82.0214 114.995 80.8547 115.573 79.8667C116.14 78.8787 117.191 77.8277 118.715 76.7136C120.176 75.6625 121.143 74.8217 121.616 74.1595C122.079 73.5079 122.32 72.7721 122.32 71.9628C122.32 71.0589 121.984 70.3652 121.322 69.8922C120.649 69.4193 119.714 69.1775 118.516 69.1775C116.424 69.1775 114.038 69.8607 111.358 71.2271L109.077 66.6445C112.188 64.8997 115.489 64.0273 118.968 64.0273C121.837 64.0273 124.128 64.721 125.82 66.0979C127.513 67.4748 128.364 69.3142 128.364 71.616C128.364 73.1505 128.017 74.4748 127.323 75.5889C126.63 76.7031 125.305 77.9643 123.35 79.3517C122.016 80.3397 121.164 81.0965 120.807 81.6115C120.45 82.1265 120.271 82.8097 120.271 83.64V84.8908H114.732L114.711 84.9013ZM114.038 92.059C114.038 90.8923 114.353 89.9989 114.984 89.3998C115.615 88.8007 116.529 88.4959 117.727 88.4959C118.926 88.4959 119.777 88.8007 120.418 89.4208C121.049 90.0304 121.374 90.9133 121.374 92.059C121.374 93.2046 121.049 94.0245 120.408 94.6656C119.766 95.2962 118.873 95.6221 117.727 95.6221C116.582 95.6221 115.646 95.3067 115.005 94.6866C114.364 94.0665 114.038 93.1941 114.038 92.059Z" fill="#8B8B8B"/>
<path opacity="0.2" d="M279.737 384.368C278.589 381.757 273.921 379.658 271.834 379.181C260.687 376.646 249.013 376.996 237.726 377.041C225.431 377.087 213.698 379.435 201.505 380.52C195.163 381.082 188.463 380.068 182.107 379.805C171.64 379.374 161.178 378.867 150.716 378.284C141.695 377.782 132.333 378.907 124.375 384.839C123.47 385.514 122.556 386.33 122.147 387.537C119.563 395.137 151.774 394.178 155.97 394.31C177.141 394.969 198.325 395.309 219.497 394.625C235.239 394.118 251.645 394.148 267.259 391.496C270.711 390.908 275.409 390.7 278.393 388.277C280.043 386.938 280.281 385.595 279.741 384.363L279.737 384.368Z" fill="#8B8B8B"/>
<path d="M557.986 169.201H512.727C508.943 169.201 505.874 172.27 505.874 176.054V188.215C505.874 189.781 505.296 191.294 504.256 192.472L492.915 205.231C492.81 205.347 492.936 205.526 493.083 205.463L503.762 200.89C504.76 200.46 505.874 201.195 505.874 202.288C505.874 206.072 508.943 209.141 512.727 209.141H557.986C561.769 209.141 564.838 206.072 564.838 202.288V176.065C564.838 172.281 561.769 169.212 557.986 169.212V169.201Z" fill="white"/>
<path d="M519.317 191.684C520.705 191.684 521.829 190.56 521.829 189.172C521.829 187.785 520.705 186.66 519.317 186.66C517.93 186.66 516.805 187.785 516.805 189.172C516.805 190.56 517.93 191.684 519.317 191.684Z" fill="#8B8B8B"/>
<path d="M529.985 191.684C531.373 191.684 532.497 190.56 532.497 189.172C532.497 187.785 531.373 186.66 529.985 186.66C528.598 186.66 527.473 187.785 527.473 189.172C527.473 190.56 528.598 191.684 529.985 191.684Z" fill="#8B8B8B"/>
<path d="M540.664 191.684C542.051 191.684 543.176 190.56 543.176 189.172C543.176 187.785 542.051 186.66 540.664 186.66C539.277 186.66 538.152 187.785 538.152 189.172C538.152 190.56 539.277 191.684 540.664 191.684Z" fill="#8B8B8B"/>
<path d="M553.855 189.172C553.855 190.56 552.73 191.684 551.343 191.684C549.955 191.684 548.831 190.56 548.831 189.172C548.831 187.785 549.955 186.66 551.343 186.66C552.73 186.66 553.855 187.785 553.855 189.172Z" fill="#8B8B8B"/>
<path d="M394.305 221.449H391.278V302.643H394.305V221.449Z" fill="white"/>
<path d="M416.156 221.449H413.129V302.643H416.156V221.449Z" fill="white"/>
<path d="M424.901 298.701H386.432C384.012 298.701 382.049 300.663 382.049 303.084V374.724C382.049 377.145 384.012 379.107 386.432 379.107H424.901C427.321 379.107 429.284 377.145 429.284 374.724V303.084C429.284 300.663 427.321 298.701 424.901 298.701Z" fill="#353535"/>
<path d="M389.585 298.701V379.107" stroke="#606060" stroke-width="0.73" stroke-miterlimit="10"/>
<g opacity="0.68">
<path d="M393.327 321.625H387.157V324.379H393.327V321.625Z" fill="url(#paint1_linear_4252_144524)"/>
<path d="M393.327 356.184H387.157V358.937H393.327V356.184Z" fill="url(#paint2_linear_4252_144524)"/>
</g>
<path d="M441.697 298.701H403.228C400.808 298.701 398.845 300.663 398.845 303.084V374.724C398.845 377.145 400.808 379.107 403.228 379.107H441.697C444.117 379.107 446.08 377.145 446.08 374.724V303.084C446.08 300.663 444.117 298.701 441.697 298.701Z" fill="#606060"/>
<path d="M393.327 320.248H387.157V323.002H393.327V320.248Z" fill="#8B8B8B"/>
<path d="M393.327 354.807H387.157V357.56H393.327V354.807Z" fill="#8B8B8B"/>
<g opacity="0.45">
<path d="M407.264 372.748C406.402 372.748 405.709 372.055 405.709 371.193V307.446C405.709 306.584 406.402 305.891 407.264 305.891C408.126 305.891 408.82 306.584 408.82 307.446V371.193C408.82 372.055 408.126 372.748 407.264 372.748Z" fill="url(#paint3_linear_4252_144524)"/>
<path d="M417.396 372.748C416.535 372.748 415.841 372.055 415.841 371.193V307.446C415.841 306.584 416.535 305.891 417.396 305.891C418.258 305.891 418.952 306.584 418.952 307.446V371.193C418.952 372.055 418.258 372.748 417.396 372.748Z" fill="url(#paint4_linear_4252_144524)"/>
<path d="M427.529 372.748C426.667 372.748 425.973 372.055 425.973 371.193V307.446C425.973 306.584 426.667 305.891 427.529 305.891C428.391 305.891 429.084 306.584 429.084 307.446V371.193C429.084 372.055 428.391 372.748 427.529 372.748Z" fill="url(#paint5_linear_4252_144524)"/>
<path d="M437.661 372.748C436.799 372.748 436.105 372.055 436.105 371.193V307.446C436.105 306.584 436.799 305.891 437.661 305.891C438.523 305.891 439.216 306.584 439.216 307.446V371.193C439.216 372.055 438.523 372.748 437.661 372.748Z" fill="url(#paint6_linear_4252_144524)"/>
</g>
<path d="M431.05 383.396C431.05 385.771 429.126 387.684 426.761 387.684C424.397 387.684 422.473 385.761 422.473 383.396C422.473 381.031 424.397 379.107 426.761 379.107C429.126 379.107 431.05 381.031 431.05 383.396Z" fill="#282828"/>
<path d="M445.291 383.396C445.291 385.771 443.368 387.684 441.003 387.684C438.638 387.684 436.715 385.761 436.715 383.396C436.715 381.031 438.638 379.107 441.003 379.107C443.368 379.107 445.291 381.031 445.291 383.396Z" fill="#282828"/>
<path d="M440.993 378.93H390.237V381.736H440.993V378.93Z" fill="#282828"/>
<path opacity="0.43" d="M441.697 298.701H386.443L398.845 304.482L446.08 337.716V303.084C446.08 300.656 444.114 298.701 441.697 298.701Z" fill="url(#paint7_linear_4252_144524)"/>
<path d="M394.578 383.396C394.578 385.771 392.655 387.684 390.29 387.684C387.925 387.684 386.001 385.761 386.001 383.396C386.001 381.031 387.925 379.107 390.29 379.107C392.655 379.107 394.578 381.031 394.578 383.396Z" fill="#282828"/>
<path d="M408.82 383.396C408.82 385.771 406.896 387.684 404.531 387.684C402.167 387.684 400.243 385.761 400.243 383.396C400.243 381.031 402.167 379.107 404.531 379.107C406.896 379.107 408.82 381.031 408.82 383.396Z" fill="#282828"/>
<path d="M406.192 383.395C406.192 384.309 405.446 385.056 404.532 385.056C403.617 385.056 402.871 384.309 402.871 383.395C402.871 382.481 403.617 381.734 404.532 381.734C405.446 381.734 406.192 382.481 406.192 383.395Z" fill="#8B8B8B" stroke="#282828" stroke-width="0.33" stroke-miterlimit="10"/>
<path d="M391.908 383.395C391.908 384.309 391.162 385.056 390.248 385.056C389.333 385.056 388.587 384.309 388.587 383.395C388.587 382.481 389.333 381.734 390.248 381.734C391.162 381.734 391.908 382.481 391.908 383.395Z" fill="#8B8B8B" stroke="#282828" stroke-width="0.33" stroke-miterlimit="10"/>
<g opacity="0.43">
<path d="M394.315 228.144V221.449H391.278V227.304L394.315 228.144Z" fill="url(#paint8_linear_4252_144524)"/>
<path d="M416.156 221.449H413.129V233.389L416.156 234.23V221.449Z" fill="url(#paint9_linear_4252_144524)"/>
</g>
<path d="M416.955 218.559H390.479C389.659 218.559 388.997 219.221 388.997 220.041V222.08C388.997 222.899 389.659 223.562 390.479 223.562H394.977C396.407 223.562 397.857 223.278 399.087 222.563C400.264 221.88 401.904 221.459 403.712 221.459C405.519 221.459 407.159 221.88 408.336 222.563C409.577 223.278 411.016 223.562 412.446 223.562H416.944C417.764 223.562 418.426 222.899 418.426 222.08V220.041C418.426 219.221 417.764 218.559 416.944 218.559H416.955Z" fill="#606060"/>
<path d="M437.86 268.693L449.632 273.402L427.917 276.66L428.39 269.66L437.86 268.693Z" fill="#282828"/>
<path d="M482.257 285.258C482.257 285.258 492.011 284.365 493.64 290.335C497.319 303.82 512.559 376.606 512.559 376.606C512.559 376.606 517.993 382.649 523.027 384.751C528.062 386.853 531.583 386.38 529.302 387.936C527.011 389.481 512.822 386.328 512.822 386.328L506.126 386.853L507.304 379.233C507.304 379.233 502.574 364.781 496.793 353.22C491.012 341.658 480.134 312.754 479.787 304.608C479.44 296.463 482.246 285.248 482.246 285.248L482.257 285.258Z" fill="white" stroke="#282828" stroke-miterlimit="10"/>
<path d="M488.385 229.637C488.385 229.637 489.993 229.637 489.888 230.772C489.783 231.907 489.614 238.224 488.385 238.918C487.155 239.622 484.443 240.757 484.443 240.757C484.443 240.757 486.955 274.716 480.849 279.457C476.087 283.156 470.38 278.248 467.984 275.011C465.304 271.395 453.71 254.515 453.71 254.515L465.188 245.14L477.012 265.551C477.012 265.551 479.945 239.906 481.427 238.066C482.919 236.227 485.242 235.155 485.242 235.155C485.242 235.155 487.596 229.794 488.395 229.637H488.385Z" fill="#F04F4F"/>
<path d="M488.385 229.637C488.385 229.637 489.993 229.637 489.888 230.772C489.783 231.907 489.614 238.224 488.385 238.918C487.155 239.622 484.443 240.757 484.443 240.757C484.443 240.757 486.955 274.716 480.849 279.457C476.087 283.156 470.38 278.248 467.984 275.011C465.304 271.395 453.71 254.515 453.71 254.515L465.188 245.14L477.012 265.551C477.012 265.551 479.945 239.906 481.427 238.066C482.919 236.227 485.242 235.155 485.242 235.155C485.242 235.155 487.596 229.794 488.395 229.637H488.385Z" fill="white" stroke="#282828" stroke-miterlimit="10"/>
<path d="M443.568 272.288C452.249 273.738 483.119 279.971 487.334 284.543C494.691 292.521 487.596 304.219 481.816 314.067C476.035 323.916 456.853 365.17 456.853 365.17L455.676 385.539C455.676 385.539 459.218 387.641 457.641 387.904C456.065 388.167 452.523 386.59 451.598 384.751C450.673 382.911 450.946 374.366 449.758 371.875C448.571 369.384 447.267 365.043 447.267 365.043L452.123 361.491C452.123 361.491 456.065 346.377 457.904 333.375C459.743 320.374 464.736 304.639 468.015 302.253H425.059L426.677 280.034L443.568 272.277V272.288Z" fill="white" stroke="#282828" stroke-miterlimit="10"/>
<path d="M400.096 266.341C400.096 266.341 387.452 289.012 408.326 300.321C412.53 302.602 424.796 302.245 432.847 302.245C432.847 302.245 430.419 276.368 443.568 272.29L421.506 268.348L400.096 266.33V266.341Z" fill="#353535"/>
<path d="M437.86 271.27C431.197 275.001 427.529 283.682 429.263 302.265" stroke="#606060" stroke-width="0.75" stroke-miterlimit="10"/>
<path d="M507.304 379.233L506.126 386.853L512.822 386.328C512.822 386.328 527.011 389.481 529.302 387.936C531.594 386.391 528.062 386.853 523.027 384.751C517.993 382.649 512.559 376.605 512.559 376.605C509.406 380.547 507.304 379.233 507.304 379.233Z" fill="#282828"/>
<path d="M452.123 361.502L447.267 365.055C447.267 365.055 448.581 369.385 449.758 371.886C450.936 374.388 450.673 382.922 451.598 384.762C452.523 386.601 456.065 388.178 457.641 387.915C459.218 387.652 455.676 385.55 455.676 385.55L456.853 365.181C451.787 364.886 452.123 361.502 452.123 361.502Z" fill="#282828"/>
<path d="M489.793 219.085C489.856 222.028 487.859 225.391 489.099 226.243C490.34 227.094 487.66 236.354 485.883 236.953C484.107 237.552 481.479 235.902 477.012 236.953C472.545 238.004 466.039 240.758 466.039 240.758L459.47 230.331C459.47 230.331 470.969 230.247 472.083 228.408C473.197 226.569 477.075 216.321 477.075 216.321C477.075 216.321 489.688 214.219 489.783 219.085H489.793Z" fill="white" stroke="#282828" stroke-miterlimit="10"/>
<path d="M483.792 209.846C476.487 207.639 470.559 210.193 468.32 215.175C464.925 222.764 471.662 230.079 471.662 230.079C471.662 230.079 473.491 230.836 474.847 229.722C475.751 228.975 476.56 228.229 477.296 227.483C476.897 227.378 476.487 227.21 476.161 226.915C475.268 226.106 476.813 221.702 478.305 222.007C479.283 222.207 479.566 223.762 479.64 224.792C481.563 222.322 482.404 220.451 482.404 220.451C482.404 220.451 485.599 221.113 487.134 218.791L489.793 219.074C489.793 219.074 491.096 212.043 483.792 209.836V209.846Z" fill="#282828"/>
<path d="M472.261 211.065C472.261 214.512 469.15 217.298 465.314 217.298C461.478 217.298 458.366 214.502 458.366 211.065C458.366 207.628 461.478 204.832 465.314 204.832C469.15 204.832 472.261 207.628 472.261 211.065Z" fill="#282828"/>
<path d="M461.52 228.743C461.52 228.743 471.957 239.58 470.748 241.755C469.539 243.931 464.547 247.998 464.547 247.998C464.547 247.998 462.245 254.893 458.902 256.995C455.56 259.098 446.752 259.497 442.674 259.56C438.596 259.623 437.156 264.815 437.156 264.815C437.156 264.815 442.264 270.27 439.122 270.27H405.099C397.216 270.27 395.524 263.27 400.106 261.925C403.26 261 412.793 247.736 423.492 238.497C437.282 226.588 455.108 228.47 457.473 228.754C459.838 229.037 460.731 227.913 461.52 228.754V228.743Z" fill="#282828"/>
<path d="M520.862 251.825L515.67 250.637C515.334 250.564 515.187 250.175 515.386 249.891L524.919 236.143C525.088 235.902 525.382 235.786 525.666 235.849L530.217 236.89C530.627 236.984 530.816 237.468 530.574 237.814L520.862 251.815V251.825Z" fill="#282828"/>
<path d="M520.515 249.449L517.11 248.681C516.942 248.639 516.858 248.44 516.963 248.303L524.846 236.878C524.951 236.731 525.13 236.657 525.308 236.699L528.924 237.509C529.103 237.551 529.187 237.761 529.082 237.908L521.346 249.112C521.157 249.375 520.831 249.512 520.515 249.438V249.449Z" fill="white"/>
<path d="M476.539 287.539C476.539 287.539 477.296 293.782 482.625 294.728" stroke="#282828" stroke-width="0.75" stroke-miterlimit="10"/>
<path d="M452.733 251.004C452.733 251.004 437.314 256.964 434.686 251.004C432.059 245.045 446.616 233.199 457.463 233.199C465.955 233.199 469.203 244.351 469.203 244.351L487.071 272.992L517.615 256.07L516.942 250.931L520.873 251.792C520.873 251.792 522.103 248.555 523.763 247.504C523.763 247.504 523.763 243.647 524.205 243.563C524.646 243.479 525.603 247.157 524.993 249.165C524.383 251.183 521.661 255.387 519.654 258.183C517.636 260.989 493.693 286.866 482.131 284.365C474.143 282.641 452.733 250.994 452.733 250.994V251.004Z" fill="white" stroke="#282828" stroke-miterlimit="10"/>
<path opacity="0.2" d="M549.83 388.804C548.61 384.997 543.403 381.853 541.062 381.117C528.559 377.198 510.116 383.941 497.381 383.757C483.51 383.55 475.489 381.196 461.703 382.497C454.531 383.172 447.002 381.555 439.839 381.032C428.044 380.176 415.113 382.789 403.327 381.712C393.164 380.786 383.695 377.63 374.548 386.045C373.507 387.002 372.453 388.164 371.958 389.903C368.826 400.853 405.192 400.179 409.922 400.463C433.788 401.887 457.676 402.848 481.58 402.326C499.354 401.94 517.86 402.348 535.551 398.853C539.462 398.077 544.768 397.88 548.204 394.436C550.103 392.534 550.409 390.594 549.835 388.797L549.83 388.804Z" fill="#8B8B8B"/>
<path d="M210.28 270.562L227.801 377.507C227.801 377.507 231.301 378.821 233.992 377.507C233.992 377.507 241.423 317.334 235.117 296.051L233.992 270.562H210.27H210.28Z" fill="white" stroke="#282828" stroke-miterlimit="10"/>
<path d="M224.238 303.231C224.238 303.231 226.393 304.986 231.375 301.129" stroke="#282828" stroke-width="0.75" stroke-miterlimit="10"/>
<path d="M196.228 270.562L165.747 378.096H159.966C159.966 378.096 156.634 321.455 168.028 296.051L172.673 270.562H196.228Z" fill="white" stroke="#282828" stroke-miterlimit="10"/>
<path d="M227.801 377.508C227.801 377.508 225.31 379.662 224.659 384.602C224.48 385.948 225.531 387.156 226.887 387.177C229.473 387.23 233.572 387.346 236 387.577C239.363 387.892 241.055 389.532 248.833 388.817C249.832 388.723 250.136 387.409 249.274 386.883L234.003 377.508H227.812H227.801Z" fill="#282828"/>
<path d="M159.851 377.508C159.851 377.508 157.36 379.662 156.708 384.602C156.529 385.948 157.58 387.156 158.936 387.177C161.522 387.23 165.621 387.346 168.049 387.577C171.412 387.892 173.105 389.532 180.882 388.817C181.881 388.723 182.186 387.409 181.324 386.883L166.052 377.508H159.861H159.851Z" fill="#282828"/>
<path d="M174.555 297.754C174.555 297.754 176.92 301.475 182.827 301.128" stroke="#282828" stroke-width="0.75" stroke-miterlimit="10"/>
<path d="M227.938 218.799C227.938 218.799 232.142 223.529 231.27 240.871C231.27 240.871 236.21 260.137 236.63 273.632H207.621L204.121 253.137L198.34 273.632H168.038L174.523 234.039C174.523 234.039 173.125 222.824 179.432 215.299L227.959 218.799H227.938Z" fill="#353535"/>
<path d="M190.72 216.107C190.72 216.107 190.226 228.783 174.502 234.038" stroke="#606060" stroke-width="0.75" stroke-miterlimit="10"/>
<path d="M224.249 218.525C224.249 218.525 223.587 229.561 231.365 234.817" stroke="#606060" stroke-width="0.75" stroke-miterlimit="10"/>
<path d="M228.159 237.654C228.159 237.654 230.366 238.831 231.27 240.86" stroke="#606060" stroke-width="0.75" stroke-miterlimit="10"/>
<path d="M185.013 236.646C185.013 236.646 178.265 237.803 175.291 240.872" stroke="#606060" stroke-width="0.75" stroke-miterlimit="10"/>
<path d="M185.013 240.346L172.674 245.233" stroke="#606060" stroke-width="0.75" stroke-miterlimit="10"/>
<path d="M207.884 226.062C207.884 226.062 209.902 242.27 204.121 253.127" stroke="#606060" stroke-width="0.75" stroke-miterlimit="10"/>
<path d="M212.172 225.535C212.172 225.535 215.147 238.495 207.789 240.334" stroke="#606060" stroke-width="0.75" stroke-miterlimit="10"/>
<path d="M254.383 238.833C254.383 238.833 254.593 242.533 254.025 242.533C253.458 242.533 253.268 239.096 253.268 239.096L252.785 239.211C252.785 239.211 252.144 243.447 251.492 243.71C250.84 243.972 251.408 239.989 251.408 239.989C251.408 239.989 249.916 243.1 249.506 242.921C249.085 242.743 250.105 239.852 250.105 239.852C250.105 239.852 248.339 242.396 247.992 242.259C247.645 242.133 248.885 240.147 248.885 240.147L249.506 229.562L252.028 231.013L254.393 238.833H254.383Z" fill="white" stroke="#282828" stroke-miterlimit="10"/>
<path d="M257.336 239.063L241.675 242.825V235.3L257.336 231.537V239.063Z" fill="#282828"/>
<path d="M256.043 238.644L242.695 241.849V236.058L256.043 232.842V238.644Z" fill="#8B8B8B"/>
<path d="M251.471 232.725C251.555 232.799 251.566 232.788 251.639 232.914L254.004 232.347C253.731 230.486 253.374 229.32 253.374 229.32C244.177 201.204 233.404 183.862 233.404 183.862L231.039 178.732H213.959C213.959 178.732 230.881 208.362 247.845 228.237C248.276 228.742 248.444 229.404 248.318 230.055C247.982 231.653 247.383 234.775 247.34 236.803C247.277 239.631 248.717 234.701 249.306 233.587C249.895 232.473 250.83 232.168 251.471 232.736V232.725Z" fill="white" stroke="#282828" stroke-miterlimit="10"/>
<path d="M200.569 137.805C211.205 137.805 218.3 144.962 219.876 152.446L236.168 180.562H212.918L200.579 137.805H200.569Z" fill="#282828"/>
<path d="M160.324 152.446L169.888 141.147C171.528 139.202 173.924 138.067 176.468 138.036C182.932 137.941 195.366 137.752 199.381 137.752C211.468 137.752 215.851 152.057 218.247 161.632C220.644 171.207 227.822 211.652 227.822 211.652C227.822 211.652 237.051 227.113 218.416 227.113C199.78 227.113 182.554 216.339 182.554 216.339C182.554 216.339 177.204 219.072 176.773 218.557C176.352 218.042 178.055 212.293 178.055 212.293L171.864 179.573H163.645C163.645 179.573 148.499 177.04 160.324 152.435V152.446Z" fill="#282828"/>
<path d="M171.864 179.585C177.918 179.995 183.699 172.732 182.553 165.848" stroke="#606060" stroke-width="0.75" stroke-linecap="round" stroke-linejoin="round"/>
<path d="M174.628 139.119C174.628 139.119 182.301 142.987 183.352 152.447" stroke="#606060" stroke-width="0.75" stroke-linecap="round" stroke-linejoin="round"/>
<path d="M217 161.5C217 161.5 220.673 170.868 221.724 180.327" stroke="#606060" stroke-width="0.75" stroke-linecap="round" stroke-linejoin="round"/>
<path d="M174.628 118.139C174.628 118.139 175.333 122.07 173.104 123.426C172.369 125.727 165.705 154.8 165.705 154.8C165.705 154.8 169.1 166.571 164.296 177.944C164.296 177.944 146.071 183.62 141.73 173.719C137.389 163.818 160.849 128.439 170.466 120.441C170.466 120.441 169.026 114.544 169.552 113.293C170.077 112.043 176.384 107.775 176.384 107.775L174.628 118.139Z" fill="white" stroke="#282828" stroke-miterlimit="10"/>
<path d="M187.115 107.996L194.735 113.599L193.243 114.765C193.243 114.765 197.888 119.558 196.837 121.135C195.786 122.711 194.126 124.288 194.126 124.288L196.68 138.298C197.142 140.842 194.693 142.944 192.244 142.093L179.768 137.752L180.683 127.536C180.683 127.536 176.951 116.93 176.773 113.599C176.594 110.267 182.375 105.8 187.104 107.996H187.115Z" fill="white" stroke="#282828" stroke-miterlimit="10"/>
<path opacity="0.3" d="M181.954 121.219C181.954 121.219 188.481 127 194.126 124.288L195.534 133.232C195.534 133.232 186.705 131.246 181.544 123.647L181.944 121.219H181.954Z" fill="#C3C3C3"/>
<path d="M181.86 113.514C181.86 113.514 188.345 110.539 191.761 107.029C195.177 103.529 192.36 100.228 186.81 101.952C183.699 102.919 173.893 106.24 174.597 111.149C170.739 112.116 171.528 115.794 173.546 118.159C175.564 120.524 180.199 124.382 180.819 128.06L181.954 121.228C181.954 121.228 179.148 119.568 179.505 117.812C179.852 116.057 182.291 116.499 182.564 118.075L181.87 113.524L181.86 113.514Z" fill="#282828"/>
<defs>
<linearGradient id="paint0_linear_4252_144524" x1="348.947" y1="44.8869" x2="372.711" y2="65.0102" gradientUnits="userSpaceOnUse">
<stop stop-color="#606060"/>
<stop offset="1" stop-color="#606060" stop-opacity="0"/>
</linearGradient>
<linearGradient id="paint1_linear_4252_144524" x1="396.859" y1="323.012" x2="371.633" y2="323.012" gradientUnits="userSpaceOnUse">
<stop/>
<stop offset="0.93" stop-opacity="0"/>
</linearGradient>
<linearGradient id="paint2_linear_4252_144524" x1="396.859" y1="357.56" x2="371.633" y2="357.56" gradientUnits="userSpaceOnUse">
<stop/>
<stop offset="0.93" stop-opacity="0"/>
</linearGradient>
<linearGradient id="paint3_linear_4252_144524" x1="407.264" y1="287.392" x2="407.264" y2="417.281" gradientUnits="userSpaceOnUse">
<stop/>
<stop offset="0.93" stop-opacity="0"/>
</linearGradient>
<linearGradient id="paint4_linear_4252_144524" x1="417.396" y1="287.392" x2="417.396" y2="417.281" gradientUnits="userSpaceOnUse">
<stop/>
<stop offset="0.93" stop-opacity="0"/>
</linearGradient>
<linearGradient id="paint5_linear_4252_144524" x1="427.529" y1="287.392" x2="427.529" y2="417.281" gradientUnits="userSpaceOnUse">
<stop/>
<stop offset="0.93" stop-opacity="0"/>
</linearGradient>
<linearGradient id="paint6_linear_4252_144524" x1="437.661" y1="287.392" x2="437.661" y2="417.281" gradientUnits="userSpaceOnUse">
<stop/>
<stop offset="0.93" stop-opacity="0"/>
</linearGradient>
<linearGradient id="paint7_linear_4252_144524" x1="416.261" y1="289.757" x2="416.261" y2="345.463" gradientUnits="userSpaceOnUse">
<stop/>
<stop offset="0.93" stop-opacity="0"/>
</linearGradient>
<linearGradient id="paint8_linear_4252_144524" x1="392.791" y1="208.437" x2="392.791" y2="252.466" gradientUnits="userSpaceOnUse">
<stop/>
<stop offset="0.93" stop-opacity="0"/>
</linearGradient>
<linearGradient id="paint9_linear_4252_144524" x1="414.643" y1="208.437" x2="414.643" y2="252.466" gradientUnits="userSpaceOnUse">
<stop/>
<stop offset="0.93" stop-opacity="0"/>
</linearGradient>
</defs>
</svg>
