<svg xmlns="http://www.w3.org/2000/svg" width="16" height="16" viewBox="0 0 12 12" fill="none" class="cursor-pointer text-neutral5 hover:text-link"><path d="M3.5 8.5H2.25C1.91848 8.5 1.60054 8.3683 1.36612 8.13388C1.1317 7.89946 1 7.58152 1 7.25V2.25C1 1.91848 1.1317 1.60054 1.36612 1.36612C1.60054 1.1317 1.91848 1 2.25 1H7.25C7.58152 1 7.89946 1.1317 8.13388 1.36612C8.3683 1.60054 8.5 1.91848 8.5 2.25V3.5" stroke="#8B8B8B" stroke-linecap="round" stroke-linejoin="round"></path><path d="M7.25 11H4.75C4.41848 11 4.10054 10.8683 3.86612 10.6339C3.6317 10.3995 3.5 10.0815 3.5 9.75V4.75C3.5 4.41848 3.6317 4.10054 3.86612 3.86612C4.10054 3.6317 4.41848 3.5 4.75 3.5H9.75C10.0815 3.5 10.3995 3.6317 10.6339 3.86612C10.8683 4.10054 11 4.41848 11 4.75V7.25" stroke="#8B8B8B" stroke-linecap="round" stroke-linejoin="round"></path><rect x="3.5" y="3.5" width="7.5" height="7.5" rx="1" stroke="#8B8B8B"></rect></svg>