<svg width="24" height="24" viewBox="0 0 24 24" fill="none" xmlns="http://www.w3.org/2000/svg"><path fill-rule="evenodd" clip-rule="evenodd" d="M3.69231 8.53846C4.10769 8.53846 4.38461 8.26154 4.38461 7.84616V6.32307C4.38461 6.04615 4.66153 5.76924 4.93845 5.76924H6.87692L6.66922 5.97692C6.39229 6.25384 6.39229 6.66924 6.66922 6.94616C6.80768 7.08463 7.01538 7.15385 7.15384 7.15385C7.2923 7.15385 7.5 7.08463 7.63846 6.94616L9.02308 5.56155C9.3 5.28463 9.3 4.86923 9.02308 4.59231L7.63846 3.20769C7.36154 2.93077 6.94614 2.93077 6.66922 3.20769C6.39229 3.48461 6.39229 3.90002 6.66922 4.17694L6.87692 4.38462H4.93845C3.89999 4.38462 3 5.28461 3 6.32307V7.84616C3 8.26154 3.27692 8.53846 3.69231 8.53846ZM14.7692 14.0769C14.7692 13.6615 15.0462 13.3846 15.4615 13.3846C17.7462 13.3846 19.5462 11.5154 19.5462 9.23076C19.5462 6.94615 17.6769 5.07692 15.3923 5.07692C14.0769 5.07692 12.7616 5.76924 12 6.87693C11.7923 7.15385 11.3769 7.22307 11.0308 7.01537C10.7539 6.80768 10.6846 6.3923 10.8923 6.04615C11.9308 4.59231 13.6615 3.69231 15.4615 3.69231C18.5077 3.69231 21 6.18462 21 9.23076C21 12.2769 18.5077 14.7692 15.4615 14.7692C15.0462 14.7692 14.7692 14.4923 14.7692 14.0769ZM3 15.2793C3 12.2332 5.4923 9.74088 8.53845 9.74088C11.5846 9.74088 14.0769 12.2332 14.0769 15.2793C14.0769 18.3255 11.5846 20.8178 8.53845 20.8178C5.4923 20.8178 3 18.3255 3 15.2793ZM4.38461 15.2793C4.38461 17.5639 6.25384 19.4332 8.53845 19.4332C10.8231 19.4332 12.6923 17.5639 12.6923 15.2793C12.6923 12.9947 10.8231 11.1255 8.53845 11.1255C6.25384 11.1255 4.38461 12.9947 4.38461 15.2793ZM19.6154 16.6639C19.6154 16.2486 19.8923 15.9716 20.3077 15.9716C20.7231 15.9716 21 16.2486 21 16.6639V18.187C21 19.2255 20.1 20.1255 19.0615 20.1255H17.1231L17.3308 20.3332C17.6077 20.6101 17.6077 21.0255 17.3308 21.3024C17.1923 21.4409 16.9846 21.5101 16.8461 21.5101C16.7077 21.5101 16.5 21.4409 16.3615 21.3024L14.9769 19.9178C14.7 19.6409 14.7 19.2255 14.9769 18.9485L16.3615 17.5639C16.6384 17.287 17.0538 17.287 17.3308 17.5639C17.6077 17.8408 17.6077 18.2562 17.3308 18.5332L17.1231 18.7409H19.0615C19.3385 18.7409 19.6154 18.4639 19.6154 18.187V16.6639Z" fill="#1A90FF"></path></svg>